<?xml version="1.0" encoding="iso-8859-1"?>
<!-- Generator: Adobe Illustrator 19.0.1, SVG Export Plug-In . SVG Version: 6.00 Build 0)  -->
<svg version="1.1" xmlns="http://www.w3.org/2000/svg" xmlns:xlink="http://www.w3.org/1999/xlink" x="0px" y="0px"
	 viewBox="0 0 128 128" style="enable-background:new 0 0 128 128;" xml:space="preserve">
<g id="_x35_5">
	<path id="_x35_5_1_" style="fill:#171617;" d="M8.239,0.201v127.598H76.57c-0.018,0-0.036,0.044-0.053,0.008
		c-1.315-2.044-2.967-4.075-4.797-5.355c-4.583-3.217-7.39-11.387-7.39-11.387s14.585,0.279,18.44-4.218
		c6.467,2.826,3.571,6.938,3.962,11.151c0.231,2.417,1.546,6.607,2.611,9.806c0.018,0.036,0.018-0.005,0.036-0.005h29.935V0.201
		H8.239z M80.976,60.609c-1.919,3.59-3.713,21.774-2.576,24.6c1.155,2.826-0.249,4.355-0.249,4.355s-5.33-4.604-5.17-7.821
		c0.178-3.199,1.848-19.854,1.848-19.854s-4.139-6.594,0-7.43C78.951,53.624,82.895,57.019,80.976,60.609z M71.88,24.897h0.124
		c0,0,0.835-2.238,1.723-3.767c0.906-1.546,0.071-11.553,0.071-11.553c0.124,0.658,5.756,0.507,5.756,0.507
		s-0.124,3.471-1.013,5.639c-0.906,2.186,0.249,10.898,0.249,10.898s-0.249,19.704,0.764,22.139c1.03,2.435,0.782,5.737-1.279,4.706
		c-2.043-1.013-5.365,1.607-6.396-0.828c-1.03-2.435,1.919-7.321,1.919-9.241C73.799,41.461,71.88,24.897,71.88,24.897z
		 M70.53,59.667c-1.261,3.857,0.195,22.094,1.83,24.653c1.634,2.577,0.515,4.337,0.515,4.337s-6.058-3.59-6.466-6.772
		c-0.391-3.182-1.706-19.872-1.706-19.872s-5.241-5.759-1.315-7.323C67.297,53.144,71.774,55.792,70.53,59.667z M65.236,92.283
		c0,0-6.769-1.991-7.941-4.995c-1.155-2.986-6.52-18.841-6.52-18.841s-6.484-4.302-3.073-6.772c3.411-2.47,8.403-0.995,8.137,3.075
		c-0.267,4.053,5.614,21.365,7.817,23.462C65.876,90.293,65.236,92.283,65.236,92.283z M66.604,53.073
		c-2.203-0.64-5.028,2.471-6.467,0.249c-1.439-2.204,0.746-6.772,0.409-8.656c-0.355-1.902-5.045-17.188-5.045-17.188l6.804-1.226
		c0,0,3.251,19.588,4.69,21.809C68.434,50.264,68.807,53.713,66.604,53.073z M60.173,10.112c0,0,0.426,3.039-0.071,5.332
		c-0.497,2.311,2.825,9.918,2.825,9.918l-7.444,1.333c0,0,0.373-2.648,0.977-4.319c0.622-1.671-1.954-11.233-1.954-11.233
		C54.755,11.765,60.173,10.112,60.173,10.112z M50.438,59.329c-2.292-0.089-4.264,3.608-6.2,1.813
		c-1.936-1.795-0.959-6.737-1.741-8.496c-0.799-1.742-9.096-15.411-9.096-15.411l6.289-2.862c0,0,7.959,18.183,9.895,19.979
		C51.521,56.148,52.729,59.4,50.438,59.329z M33.685,19.248c0,0,1.137,2.844,1.226,5.19c0.089,2.364,5.17,8.923,5.17,8.923
		l-6.893,3.111c0,0-0.284-2.648-0.107-4.426c0.178-1.706-4.37-9.883-4.637-10.398C28.924,22.11,33.685,19.248,33.685,19.248z
		 M29.581,72.802c-2.221-1.404-2.167-6.452-3.251-8.034c-1.101-1.582-11.778-13.491-11.778-13.491l5.667-3.964
		c0,0,11.157,16.424,13.395,17.828c2.238,1.404,3.997,4.39,1.741,4.728C33.081,70.207,31.82,74.207,29.581,72.802z M47.222,96.123
		c-1.705-2.737-9.86-17.348-9.86-17.348s-7.159-3.022-4.264-6.079c2.913-3.057,8.083-2.524,8.563,1.511
		c0.48,4.053,9.416,19.979,11.974,21.631c2.558,1.653,2.292,3.733,2.292,3.733S48.91,98.842,47.222,96.123z M71.667,109.933
		c-2.487-0.124-18.636-4.355-18.689-8.834c0,0,2.629,1.671,4.175-1.529c1.528-3.217,6.395-6.417,8.19-5.528
		c1.794,0.907-1.901,9.741,2.825,10.647C72.911,105.579,74.137,110.058,71.667,109.933z M67.013,99.055
		c0.568-4.106,0.568-4.106,0.568-4.106s5.187-5.901,7.746-2.435c2.576,3.466,0.444,11.393-2.079,11.536
		C70.726,104.174,66.426,103.144,67.013,99.055z M84.423,104.05c-1.652,1.013-9.86,4.604-9.86,4.604s-2.665-3.199,1.936-6.15
		c4.601-2.95,0-11.073,0-11.073l0.728-0.693c0,0,5.276,0.622,7.195,2.168C86.341,94.434,86.093,103.037,84.423,104.05z
		 M85.844,80.463c0.124,4.621,0.124,10.647-2.31,10.256c-2.434-0.391-4.992-5.635-2.7-10.114c2.309-4.497,3.713-13.598,3.464-16.015
		c-0.249-2.435-1.528-3.466-1.528-3.466s4.85-4.87,7.923,0C93.767,65.995,85.702,75.86,85.844,80.463z M91.333,50.495
		c0.391,4.355,0.906,9.989-1.777,8.319c-2.7-1.671-6.786-0.124-6.786-1.92s4.086-5.386,5.116-8.461c1.03-3.075,1.67-12.3,1.67-12.3
		l6.147,2.559C95.704,38.693,90.96,46.141,91.333,50.495z M96.592,31.015c-0.515,2.168-0.249,5.901-0.249,5.901l-6.147-2.826
		c0,0,4.086-3.466,4.086-6.15s2.185-3.075,3.713-1.671C99.541,27.691,97.107,28.828,96.592,31.015z"/>
</g>
<g id="Layer_1">
</g>
</svg>
