<svg width="554" height="82" viewBox="0 0 554 82" fill="none" xmlns="http://www.w3.org/2000/svg">
<path d="M4 0H0V50H4V0Z" fill="black"/>
<path d="M8 0H6V50H8V0Z" fill="black"/>
<path d="M14 0H12V50H14V0Z" fill="black"/>
<path d="M26 0H22V50H26V0Z" fill="black"/>
<path d="M34 0H28V50H34V0Z" fill="black"/>
<path d="M42 0H36V50H42V0Z" fill="black"/>
<path d="M48 0H44V50H48V0Z" fill="black"/>
<path d="M56 0H50V50H56V0Z" fill="black"/>
<path d="M64 0H62V50H64V0Z" fill="black"/>
<path d="M70 0H66V50H70V0Z" fill="black"/>
<path d="M78 0H76V50H78V0Z" fill="black"/>
<path d="M86 0H84V50H86V0Z" fill="black"/>
<path d="M90 0H88V50H90V0Z" fill="black"/>
<path d="M100 0H96V50H100V0Z" fill="black"/>
<path d="M108 0H102V50H108V0Z" fill="black"/>
<path d="M114 0H110V50H114V0Z" fill="black"/>
<path d="M122 0H120V50H122V0Z" fill="black"/>
<path d="M130 0H128V50H130V0Z" fill="black"/>
<path d="M136 0H132V50H136V0Z" fill="black"/>
<path d="M144 0H138V50H144V0Z" fill="black"/>
<path d="M152 0H150V50H152V0Z" fill="black"/>
<path d="M158 0H154V50H158V0Z" fill="black"/>
<path d="M166 0H164V50H166V0Z" fill="black"/>
<path d="M174 0H172V50H174V0Z" fill="black"/>
<path d="M178 0H176V50H178V0Z" fill="black"/>
<path d="M188 0H184V50H188V0Z" fill="black"/>
<path d="M192 0H190V50H192V0Z" fill="black"/>
<path d="M202 0H198V50H202V0Z" fill="black"/>
<path d="M210 0H204V50H210V0Z" fill="black"/>
<path d="M214 0H212V50H214V0Z" fill="black"/>
<path d="M222 0H220V50H222V0Z" fill="black"/>
<path d="M230 0H226V50H230V0Z" fill="black"/>
<path d="M238 0H232V50H238V0Z" fill="black"/>
<path d="M244 0H242V50H244V0Z" fill="black"/>
<path d="M248 0H246V50H248V0Z" fill="black"/>
<path d="M258 0H254V50H258V0Z" fill="black"/>
<path d="M268 0H264V50H268V0Z" fill="black"/>
<path d="M276 0H270V50H276V0Z" fill="black"/>
<path d="M280 0H278V50H280V0Z" fill="black"/>
<path d="M288 0H286V50H288V0Z" fill="black"/>
<path d="M296 0H292V50H296V0Z" fill="black"/>
<path d="M304 0H298V50H304V0Z" fill="black"/>
<path d="M310 0H308V50H310V0Z" fill="black"/>
<path d="M314 0H312V50H314V0Z" fill="black"/>
<path d="M324 0H320V50H324V0Z" fill="black"/>
<path d="M332 0H330V50H332V0Z" fill="black"/>
<path d="M340 0H336V50H340V0Z" fill="black"/>
<path d="M348 0H342V50H348V0Z" fill="black"/>
<path d="M356 0H352V50H356V0Z" fill="black"/>
<path d="M364 0H358V50H364V0Z" fill="black"/>
<path d="M368 0H366V50H368V0Z" fill="black"/>
<path d="M376 0H374V50H376V0Z" fill="black"/>
<path d="M386 0H382V50H386V0Z" fill="black"/>
<path d="M390 0H388V50H390V0Z" fill="black"/>
<path d="M400 0H396V50H400V0Z" fill="black"/>
<path d="M408 0H406V50H408V0Z" fill="black"/>
<path d="M416 0H410V50H416V0Z" fill="black"/>
<path d="M424 0H418V50H424V0Z" fill="black"/>
<path d="M428 0H426V50H428V0Z" fill="black"/>
<path d="M434 0H430V50H434V0Z" fill="black"/>
<path d="M444 0H440V50H444V0Z" fill="black"/>
<path d="M452 0H450V50H452V0Z" fill="black"/>
<path d="M460 0H458V50H460V0Z" fill="black"/>
<path d="M464 0H462V50H464V0Z" fill="black"/>
<path d="M472 0H470V50H472V0Z" fill="black"/>
<path d="M482 0H478V50H482V0Z" fill="black"/>
<path d="M486 0H484V50H486V0Z" fill="black"/>
<path d="M496 0H492V50H496V0Z" fill="black"/>
<path d="M500 0H498V50H500V0Z" fill="black"/>
<path d="M508 0H506V50H508V0Z" fill="black"/>
<path d="M516 0H514V50H516V0Z" fill="black"/>
<path d="M524 0H520V50H524V0Z" fill="black"/>
<path d="M532 0H528V50H532V0Z" fill="black"/>
<path d="M544 0H538V50H544V0Z" fill="black"/>
<path d="M548 0H546V50H548V0Z" fill="black"/>
<path d="M554 0H550V50H554V0Z" fill="black"/>
<path d="M167.213 62.4545H168.974V72.0852C168.974 73.0795 168.74 73.9673 168.271 74.7486C167.807 75.5251 167.152 76.1383 166.304 76.5881C165.456 77.0331 164.462 77.2557 163.321 77.2557C162.18 77.2557 161.186 77.0331 160.338 76.5881C159.491 76.1383 158.832 75.5251 158.364 74.7486C157.9 73.9673 157.668 73.0795 157.668 72.0852V62.4545H159.429V71.9432C159.429 72.6534 159.585 73.2855 159.898 73.8395C160.21 74.3887 160.655 74.822 161.233 75.1392C161.815 75.4517 162.511 75.608 163.321 75.608C164.131 75.608 164.827 75.4517 165.409 75.1392C165.991 74.822 166.437 74.3887 166.744 73.8395C167.057 73.2855 167.213 72.6534 167.213 71.9432V62.4545ZM171.696 64.017V62.4545H182.605V64.017H178.032V77H176.27V64.017H171.696ZM187.085 62.4545V77H185.324V62.4545H187.085ZM190.617 77V62.4545H192.378V75.4375H199.14V77H190.617ZM203.628 62.4545V77H201.867V62.4545H203.628ZM206.364 64.017V62.4545H217.273V64.017H212.7V77H210.938V64.017H206.364ZM221.753 62.4545V77H219.992V62.4545H221.753ZM225.285 77V62.4545H234.063V64.017H227.046V68.9318H233.609V70.4943H227.046V75.4375H234.177V77H225.285ZM245.192 66.0909C245.107 65.3712 244.762 64.8125 244.156 64.4148C243.549 64.017 242.806 63.8182 241.925 63.8182C241.281 63.8182 240.718 63.9223 240.235 64.1307C239.757 64.339 239.383 64.6255 239.113 64.9901C238.848 65.3546 238.715 65.7689 238.715 66.233C238.715 66.6212 238.808 66.955 238.992 67.2344C239.182 67.509 239.423 67.7386 239.717 67.9233C240.01 68.1032 240.318 68.2524 240.64 68.3707C240.962 68.4844 241.258 68.5767 241.528 68.6477L243.005 69.0455C243.384 69.1449 243.805 69.2822 244.269 69.4574C244.738 69.6326 245.185 69.8717 245.612 70.1747C246.042 70.473 246.397 70.8565 246.677 71.3253C246.956 71.794 247.096 72.3693 247.096 73.0511C247.096 73.8371 246.89 74.5473 246.478 75.1818C246.071 75.8163 245.474 76.3205 244.688 76.6946C243.907 77.0687 242.958 77.2557 241.84 77.2557C240.799 77.2557 239.897 77.0876 239.134 76.7514C238.377 76.4152 237.78 75.9465 237.344 75.3452C236.914 74.7438 236.67 74.0455 236.613 73.25H238.431C238.478 73.7992 238.663 74.2538 238.985 74.6136C239.312 74.9687 239.724 75.2339 240.221 75.4091C240.723 75.5795 241.263 75.6648 241.84 75.6648C242.513 75.6648 243.116 75.5559 243.651 75.3381C244.186 75.1155 244.61 74.8078 244.923 74.4148C245.235 74.017 245.391 73.553 245.391 73.0227C245.391 72.5398 245.256 72.1468 244.987 71.8438C244.717 71.5407 244.362 71.2945 243.921 71.1051C243.481 70.9157 243.005 70.75 242.494 70.608L240.704 70.0966C239.567 69.7699 238.668 69.3035 238.005 68.6974C237.342 68.0914 237.011 67.2983 237.011 66.3182C237.011 65.5038 237.231 64.7936 237.671 64.1875C238.116 63.5767 238.713 63.1032 239.461 62.767C240.214 62.4261 241.054 62.2557 241.982 62.2557C242.92 62.2557 243.753 62.4238 244.482 62.7599C245.211 63.0914 245.789 63.5459 246.215 64.1236C246.646 64.7012 246.873 65.357 246.897 66.0909H245.192ZM256.015 68.946V70.5085H249.651V68.946H256.015ZM259.788 77H257.941L263.282 62.4545H265.1L270.441 77H268.594L264.248 64.7557H264.134L259.788 77ZM260.469 71.3182H267.913V72.8807H260.469V71.3182ZM280.661 66.0909C280.576 65.3712 280.23 64.8125 279.624 64.4148C279.018 64.017 278.275 63.8182 277.394 63.8182C276.75 63.8182 276.187 63.9223 275.704 64.1307C275.226 64.339 274.852 64.6255 274.582 64.9901C274.317 65.3546 274.184 65.7689 274.184 66.233C274.184 66.6212 274.276 66.955 274.461 67.2344C274.65 67.509 274.892 67.7386 275.185 67.9233C275.479 68.1032 275.787 68.2524 276.109 68.3707C276.431 68.4844 276.727 68.5767 276.996 68.6477L278.474 69.0455C278.853 69.1449 279.274 69.2822 279.738 69.4574C280.207 69.6326 280.654 69.8717 281.08 70.1747C281.511 70.473 281.866 70.8565 282.146 71.3253C282.425 71.794 282.565 72.3693 282.565 73.0511C282.565 73.8371 282.359 74.5473 281.947 75.1818C281.54 75.8163 280.943 76.3205 280.157 76.6946C279.376 77.0687 278.426 77.2557 277.309 77.2557C276.267 77.2557 275.365 77.0876 274.603 76.7514C273.845 76.4152 273.249 75.9465 272.813 75.3452C272.382 74.7438 272.138 74.0455 272.082 73.25H273.9C273.947 73.7992 274.132 74.2538 274.454 74.6136C274.781 74.9687 275.192 75.2339 275.69 75.4091C276.192 75.5795 276.731 75.6648 277.309 75.6648C277.981 75.6648 278.585 75.5559 279.12 75.3381C279.655 75.1155 280.079 74.8078 280.391 74.4148C280.704 74.017 280.86 73.553 280.86 73.0227C280.86 72.5398 280.725 72.1468 280.455 71.8438C280.185 71.5407 279.83 71.2945 279.39 71.1051C278.95 70.9157 278.474 70.75 277.962 70.608L276.173 70.0966C275.036 69.7699 274.137 69.3035 273.474 68.6974C272.811 68.0914 272.479 67.2983 272.479 66.3182C272.479 65.5038 272.7 64.7936 273.14 64.1875C273.585 63.5767 274.182 63.1032 274.93 62.767C275.683 62.4261 276.523 62.2557 277.451 62.2557C278.388 62.2557 279.222 62.4238 279.951 62.7599C280.68 63.0914 281.258 63.5459 281.684 64.1236C282.115 64.7012 282.342 65.357 282.366 66.0909H280.661ZM291.483 68.946V70.5085H285.12V68.946H291.483ZM295.256 77H293.41L298.751 62.4545H300.569L305.91 77H304.063L299.717 64.7557H299.603L295.256 77ZM295.938 71.3182H303.381V72.8807H295.938V71.3182ZM314.198 68.946V70.5085H307.835V68.946H314.198ZM325.329 66.0909C325.244 65.3712 324.898 64.8125 324.292 64.4148C323.686 64.017 322.943 63.8182 322.062 63.8182C321.418 63.8182 320.855 63.9223 320.372 64.1307C319.894 64.339 319.52 64.6255 319.25 64.9901C318.984 65.3546 318.852 65.7689 318.852 66.233C318.852 66.6212 318.944 66.955 319.129 67.2344C319.318 67.509 319.56 67.7386 319.853 67.9233C320.147 68.1032 320.455 68.2524 320.777 68.3707C321.099 68.4844 321.395 68.5767 321.664 68.6477L323.142 69.0455C323.52 69.1449 323.942 69.2822 324.406 69.4574C324.875 69.6326 325.322 69.8717 325.748 70.1747C326.179 70.473 326.534 70.8565 326.814 71.3253C327.093 71.794 327.233 72.3693 327.233 73.0511C327.233 73.8371 327.027 74.5473 326.615 75.1818C326.208 75.8163 325.611 76.3205 324.825 76.6946C324.044 77.0687 323.094 77.2557 321.977 77.2557C320.935 77.2557 320.033 77.0876 319.271 76.7514C318.513 76.4152 317.917 75.9465 317.481 75.3452C317.05 74.7438 316.806 74.0455 316.75 73.25H318.568C318.615 73.7992 318.8 74.2538 319.122 74.6136C319.449 74.9687 319.86 75.2339 320.358 75.4091C320.859 75.5795 321.399 75.6648 321.977 75.6648C322.649 75.6648 323.253 75.5559 323.788 75.3381C324.323 75.1155 324.747 74.8078 325.059 74.4148C325.372 74.017 325.528 73.553 325.528 73.0227C325.528 72.5398 325.393 72.1468 325.123 71.8438C324.853 71.5407 324.498 71.2945 324.058 71.1051C323.618 70.9157 323.142 70.75 322.63 70.608L320.841 70.0966C319.704 69.7699 318.805 69.3035 318.142 68.6974C317.479 68.0914 317.147 67.2983 317.147 66.3182C317.147 65.5038 317.368 64.7936 317.808 64.1875C318.253 63.5767 318.85 63.1032 319.598 62.767C320.35 62.4261 321.191 62.2557 322.119 62.2557C323.056 62.2557 323.89 62.4238 324.619 62.7599C325.348 63.0914 325.926 63.5459 326.352 64.1236C326.783 64.7012 327.01 65.357 327.034 66.0909H325.329ZM330.129 77V62.4545H338.907V64.017H331.89V68.9318H338.452V70.4943H331.89V75.4375H339.021V77H330.129ZM342.082 77V62.4545H346.996C348.133 62.4545 349.066 62.6487 349.795 63.0369C350.524 63.4205 351.064 63.9484 351.414 64.6207C351.764 65.2931 351.94 66.0578 351.94 66.9148C351.94 67.7718 351.764 68.5317 351.414 69.1946C351.064 69.8575 350.526 70.3783 349.802 70.7571C349.077 71.1312 348.152 71.3182 347.025 71.3182H343.048V69.7273H346.968C347.745 69.7273 348.37 69.6136 348.843 69.3864C349.321 69.1591 349.667 68.8371 349.88 68.4205C350.098 67.9991 350.207 67.4972 350.207 66.9148C350.207 66.3324 350.098 65.8234 349.88 65.3878C349.662 64.9522 349.314 64.616 348.836 64.3793C348.358 64.1378 347.726 64.017 346.94 64.017H343.843V77H342.082ZM348.928 70.4659L352.508 77H350.462L346.94 70.4659H348.928ZM355.139 62.4545L359.457 74.6989H359.628L363.946 62.4545H365.793L360.452 77H358.634L353.293 62.4545H355.139ZM369.82 62.4545V77H368.058V62.4545H369.82ZM385.056 67H383.294C383.19 66.4934 383.008 66.0483 382.748 65.6648C382.492 65.2812 382.179 64.9593 381.81 64.6989C381.445 64.4337 381.041 64.2348 380.596 64.1023C380.15 63.9697 379.686 63.9034 379.203 63.9034C378.323 63.9034 377.525 64.1259 376.81 64.571C376.1 65.0161 375.534 65.6719 375.113 66.5384C374.696 67.4048 374.488 68.4678 374.488 69.7273C374.488 70.9867 374.696 72.0497 375.113 72.9162C375.534 73.7827 376.1 74.4384 376.81 74.8835C377.525 75.3286 378.323 75.5511 379.203 75.5511C379.686 75.5511 380.15 75.4848 380.596 75.3523C381.041 75.2197 381.445 75.0232 381.81 74.7628C382.179 74.4976 382.492 74.1733 382.748 73.7898C383.008 73.4015 383.19 72.9564 383.294 72.4545H385.056C384.923 73.1979 384.682 73.8632 384.331 74.4503C383.981 75.0374 383.545 75.5369 383.025 75.9489C382.504 76.3561 381.919 76.6662 381.27 76.8793C380.626 77.0923 379.937 77.1989 379.203 77.1989C377.963 77.1989 376.86 76.8958 375.894 76.2898C374.928 75.6837 374.168 74.822 373.614 73.7045C373.06 72.5871 372.783 71.2614 372.783 69.7273C372.783 68.1932 373.06 66.8674 373.614 65.75C374.168 64.6326 374.928 63.7708 375.894 63.1648C376.86 62.5587 377.963 62.2557 379.203 62.2557C379.937 62.2557 380.626 62.3622 381.27 62.5753C381.919 62.7884 382.504 63.1009 383.025 63.5128C383.545 63.92 383.981 64.4171 384.331 65.0043C384.682 65.5866 384.923 66.2519 385.056 67ZM387.902 77V62.4545H396.68V64.017H389.663V68.9318H396.226V70.4943H389.663V75.4375H396.794V77H387.902Z" fill="black"/>
</svg>
